<?xml version="1.0" standalone="no"?>
<!DOCTYPE svg PUBLIC "-//W3C//DTD SVG 20010904//EN"
 "http://www.w3.org/TR/2001/REC-SVG-20010904/DTD/svg10.dtd">
<svg version="1.0" xmlns="http://www.w3.org/2000/svg"
 width="783.000000pt" height="783.000000pt" viewBox="0 0 783.000000 783.000000"
 preserveAspectRatio="xMidYMid meet">
<metadata>
Created by potrace 1.11, written by Peter Selinger 2001-2013
</metadata>
<g transform="translate(0.000000,783.000000) scale(0.100000,-0.100000)"
fill="#000000" stroke="none">
<path d="M558 7302 c-54 -1 -98 -5 -98 -7 0 -5 73 -101 225 -296 66 -85 140
-181 165 -214 24 -33 47 -62 50 -65 3 -3 44 -54 90 -115 47 -60 90 -117 97
-125 7 -8 64 -82 128 -165 64 -82 121 -157 128 -165 7 -9 25 -33 41 -55 17
-22 33 -42 36 -45 3 -3 35 -43 70 -90 36 -47 70 -92 77 -100 7 -8 49 -62 94
-120 44 -58 92 -118 104 -135 13 -16 153 -196 310 -400 157 -203 296 -383 309
-400 280 -355 656 -850 653 -859 -4 -8 -625 -820 -751 -981 -13 -16 -81 -104
-151 -195 -69 -91 -137 -178 -149 -195 -13 -16 -39 -50 -58 -75 -19 -25 -95
-124 -169 -220 -74 -96 -143 -187 -154 -201 -19 -25 -241 -313 -257 -334 -5
-5 -22 -28 -39 -50 -16 -22 -35 -47 -42 -55 -7 -8 -88 -114 -181 -235 -204
-266 -223 -290 -259 -335 -15 -19 -31 -39 -35 -45 -38 -50 -139 -183 -149
-195 -7 -8 -69 -89 -138 -180 -70 -91 -135 -175 -145 -187 -10 -12 -26 -33
-35 -47 l-17 -26 798 0 799 1 110 147 c61 81 113 149 116 152 3 3 41 52 84
110 44 58 85 112 92 120 10 12 689 902 763 1000 55 72 502 657 513 670 6 9 32
42 56 75 25 33 47 62 50 65 3 3 39 49 79 103 41 53 77 95 81 93 4 -3 54 -67
112 -143 57 -76 111 -147 121 -158 9 -11 52 -67 97 -125 44 -58 84 -109 88
-115 5 -5 76 -98 158 -205 82 -107 172 -224 199 -260 71 -92 446 -580 476
-619 79 -105 125 -164 319 -417 118 -154 253 -327 299 -386 l84 -108 769 0
770 0 -68 88 c-60 77 -396 510 -457 587 -13 17 -187 239 -386 495 -199 256
-421 541 -493 634 -73 92 -143 183 -157 201 -39 51 -77 100 -180 231 -52 67
-138 177 -190 245 -155 200 -161 207 -291 374 -69 88 -148 189 -175 225 -77
99 -267 343 -281 360 -76 93 -74 90 -54 119 17 23 199 261 265 346 13 17 52
67 87 112 35 44 150 192 254 328 105 136 218 284 253 328 87 113 89 115 272
352 89 116 179 233 201 260 32 41 193 250 286 372 83 108 459 593 548 709 61
78 121 156 135 174 14 18 59 76 100 130 41 54 86 112 100 130 14 18 38 49 53
68 15 20 23 38 18 41 -7 5 -1322 6 -1487 2 l-41 -1 -194 -251 c-107 -138 -204
-263 -215 -277 -12 -15 -85 -108 -161 -207 -630 -815 -1069 -1382 -1078 -1392
-5 -6 -46 -58 -90 -116 -73 -96 -81 -104 -95 -89 -9 10 -103 132 -210 272
-107 140 -198 260 -202 265 -5 6 -103 134 -218 285 -116 151 -220 287 -231
303 -78 101 -348 454 -419 547 -47 62 -161 212 -255 334 -93 122 -188 245
-210 274 -21 28 -42 52 -45 53 -16 2 -1390 4 -1472 1z"/>
</g>
</svg>
